# xmcd
#
# Track frame offsets: 
#        150
#        21926
#        35255
#        49116
#        68445
#        88896
#        102544
#        122610
#        135798
#        157710
#        169657
#        183237
#        193670
#        207360
#        221095
#        229488
#        240508
#        252795
#        265228
#        279680
#        291467
#        303960
#        317545
#
# Disc length: 4385 seconds
#
# Revision: 1
# Processed by: cddbd v1.5.2PL0 Copyright (c) Steve Scherf et al.
# Submitted via: ExactAudioCopyFreeDBPlugin 1.0
#
DISCID=45111f17
DTITLE=Muddy Waters - You Shook Me: The Chess Masters Vol. 3 1958-1963
DTITLE=[CD2]
DYEAR=2012
DGENRE=Blues
TTITLE0=I Got My Brand On You (Live)
TTITLE1=(I'm Your) Hoochie Coochie Man (Live)
TTITLE2=Baby Please Don't Go (Live)
TTITLE3=Soon Forgotten (Live)
TTITLE4=(I Wanna Put A) Tiger In Your Tank (Live)
TTITLE5=I Feel So Good (Live)
TTITLE6=Got My Mojo Working, Part 1 (Live)
TTITLE7=Got My Mojo Working, Part 2 (Live)
TTITLE8=Goodbye Newport Blues (Live)
TTITLE9=Real Love
TTITLE10=Lonesome Bedroom Blues
TTITLE11=Messin' With The Man
TTITLE12=Going Home
TTITLE13=Down By The Deep Blue Sea
TTITLE14=Muddy Waters Twist
TTITLE15=Tough Times
TTITLE16=You Shook Me
TTITLE17=You Need Love
TTITLE18=Little Brown Bird
TTITLE19=Sweet Black Angel (Black Angel Blues)
TTITLE20=Five Long Years
TTITLE21=Brown Skin woman
TTITLE22=Twenty Four Hours
EXTD=
EXTT0=
EXTT1=
EXTT2=
EXTT3=
EXTT4=
EXTT5=
EXTT6=
EXTT7=
EXTT8=
EXTT9=
EXTT10=
EXTT11=
EXTT12=
EXTT13=
EXTT14=
EXTT15=
EXTT16=
EXTT17=
EXTT18=
EXTT19=
EXTT20=
EXTT21=
EXTT22=
PLAYORDER=
